{"title":"The Bay(2012)MPEG-4[DaScubaDude]","uid":14637912,"size":842049918,"categoryP":"video","categoryS":"movies","magnet":"?xt=urn:btih:029b58df73f97e54a5f36b45fdca3b0f027a6d8a&amp;dn=The+Bay%282012%29MPEG-4%5BDaScubaDude%5D&amp;tr=udp%3A%2F%2Ftracker.leechers-paradise.org%3A6969&amp;tr=udp%3A%2F%2Fzer0day.ch%3A1337&amp;tr=udp%3A%2F%2Fopen.demonii.com%3A1337&amp;tr=udp%3A%2F%2Ftracker.coppersurfer.tk%3A6969&amp;tr=udp%3A%2F%2Fexodus.desync.com%3A6969","seeders":0,"leechers":1,"uploader":"dascuba","files":1,"time":1463479847,"description":"The Bay (2012)\r\nR | 1h 24min | Horror, Mystery, Sci-Fi | 21 November 2012 (Belgium)\r\nChaos breaks out in a small Maryland town after an ecological disaster occurs.\r\nDirector: Barry Levinson\r\nWriters: Michael Wallach (screenplay), Barry Levinson (story by) |\r\nStars: Will Rogers, Kristen Connolly, Kether Donohue |\r\n\r\nGeneral\r\nComplete name                            : AguirreAGUIRRE_THE_WRATH_OF_GOD_Title1.mp4\r\nFormat                                   : MPEG-4\r\nFormat profile                           : Base Media\r\nCodec ID                                 : isom (isom/iso2/avc1/mp41)\r\nFile size                                : 901 MiB\r\nDuration                                 : 1h 34mn\r\nOverall bit rate mode                    : Variable\r\nOverall bit rate                         : 1 335 Kbps\r\nMovie name                               : AGUIRRE_THE_WRATH_OF_GOD\r\nGenre                                    : Historical_Film\r\nWriting application                      : Lavf54.6.100\r\n\r\nVideo\r\nID                                       : 1\r\nFormat                                   : AVC\r\nFormat/Info                              : Advanced Video Codec\r\nFormat profile                           :   \r\nFormat settings, CABAC                   : No\r\nFormat settings, ReFrames                : 6 frames\r\nFormat settings, GOP                     : M=1, N=60\r\nCodec ID                                 : avc1\r\nCodec ID/Info                            : Advanced Video Coding\r\nDuration                                 : 1h 34mn\r\nBit rate                                 : 1 198 Kbps\r\nWidth                                    : 720 pixels\r\nHeight                                   : 540 pixels\r\nDisplay aspect ratio                     : 4:3\r\nFrame rate mode                          : Constant\r\nFrame rate                               : 29.970 (30000/1001) fps\r\nColor space                              : YUV\r\nChroma subsampling                       : 4:2:0\r\nBit depth                                : 8 bits\r\nScan type                                : Progressive\r\nBits/(Pixel*Frame)                       : 0.103\r\nStream size                              : 809 MiB (90%)\r\n\r\nAudio\r\nID                                       : 2\r\nFormat                                   : AAC\r\nFormat/Info                              : Advanced Audio Codec\r\nFormat profile                           : LC\r\nCodec ID                                 : 40\r\nDuration                                 : 1h 34mn\r\nBit rate mode                            : Variable\r\nBit rate                                 : 132 Kbps\r\nMaximum bit rate                         : 180 Kbps\r\nChannel(s)                               : 2 channels\r\nChannel positions                        : Front: L R\r\nSampling rate                            : 44.1 KHz\r\nFrame rate                               : 43.066 fps (1024 spf)\r\nCompression mode                         : Lossy\r\nStream size                              : 87.8 MiB (10%)\r\nDefault                                  : Yes\r\nAlternate group                          : 1","torrent":{"xt":"urn:btih:029b58df73f97e54a5f36b45fdca3b0f027a6d8a","amp;dn":"The+Bay%282012%29MPEG-4%5BDaScubaDude%5D","amp;tr":["udp%3A%2F%2Ftracker.leechers-paradise.org%3A6969","udp%3A%2F%2Fzer0day.ch%3A1337","udp%3A%2F%2Fopen.demonii.com%3A1337","udp%3A%2F%2Ftracker.coppersurfer.tk%3A6969","udp%3A%2F%2Fexodus.desync.com%3A6969"],"infoHash":"029b58df73f97e54a5f36b45fdca3b0f027a6d8a","infoHashBuffer":{"type":"Buffer","data":[2,155,88,223,115,249,126,84,165,243,107,69,253,202,59,15,2,122,109,138]},"announce":[],"urlList":[]}}